<?xml version="1.0" encoding="UTF-8" standalone="no"?><!DOCTYPE svg PUBLIC "-//W3C//DTD SVG 1.1//EN" "http://www.w3.org/Graphics/SVG/1.1/DTD/svg11.dtd"><svg width="100%" height="100%" viewBox="0 0 2667 2667" version="1.1" xmlns="http://www.w3.org/2000/svg" xmlns:xlink="http://www.w3.org/1999/xlink" xml:space="preserve" xmlns:serif="http://www.serif.com/" style="fill-rule:evenodd;clip-rule:evenodd;stroke-linejoin:round;stroke-miterlimit:2;"><style>path.icon{fill:#4e391c}@media(prefers-color-scheme:dark){path.icon{fill:#f7f3ec}}</style><rect id="Artboard1" x="0" y="0" width="2666.667" height="2666.667" style="fill:none;"/><g id="Artboard11" serif:id="Artboard1"><path class="icon" d="M1334.29,338.021c549.336,0.479 994.355,445.977 994.355,995.312c0,105.752 -16.27,207.676 -46.895,303.379c-9.57,1.914 -19.619,2.871 -29.668,2.871l-12.92,0c-40.674,0 -79.434,-16.27 -108.145,-44.98l-140.205,-140.205c-28.711,-28.711 -44.98,-67.471 -44.98,-108.145l0,-242.607c0,-42.109 34.453,-76.562 76.562,-76.562c42.109,0 76.563,-34.453 76.563,-76.562c0,-42.109 -34.453,-76.562 -76.563,-76.562l-114.844,0c-63.643,0 -114.844,51.201 -114.844,114.844c0,63.643 -51.201,114.844 -114.844,114.844l-267.969,0c-42.109,0 -76.562,34.453 -76.562,76.562c0,42.109 -34.453,76.562 -76.562,76.562l-121.543,0c-59.814,0 -108.145,-48.33 -108.145,-108.145c0,-28.711 11.484,-56.465 31.582,-76.562l335.439,-335.439c10.049,-10.049 15.791,-23.926 15.791,-38.281c0,-29.668 -24.404,-54.072 -54.072,-54.072l-67.471,0c-59.814,0 -108.145,-48.33 -108.145,-108.145c0,-28.711 11.484,-56.465 31.582,-76.562l110.537,-110.537c3.828,-3.828 7.656,-7.178 11.963,-10.527l0,-0.479Zm871.855,1474.307c-156.953,285.195 -449.326,485.215 -790.508,512.969c-3.35,-11.006 -5.264,-22.969 -5.264,-34.932c0,-63.643 -51.201,-114.844 -114.844,-114.844l-127.764,0c-40.674,0 -79.434,-16.27 -108.145,-44.98l-140.205,-140.205c-28.711,-28.711 -44.98,-67.471 -44.98,-108.145l0,-319.17c0,-84.697 68.428,-153.125 153.125,-153.125l472.295,0c40.674,0 79.434,16.27 108.145,44.98l140.205,140.205c28.711,28.711 67.471,44.98 108.145,44.98l26.318,0c40.674,0 79.434,16.27 108.145,44.98l76.563,76.562c20.098,20.098 47.852,31.582 76.562,31.582c22.969,0 44.502,7.178 62.207,19.619l0,-0.479Zm-872.813,746.006l125.371,-6.221c-41.152,4.307 -82.783,6.221 -125.371,6.221Zm125.371,-6.221c617.764,-62.686 1099.629,-584.268 1099.629,-1218.779c0,-676.621 -548.379,-1225 -1225,-1225c-676.621,0 -1225,548.379 -1225,1225c0,610.107 445.977,1116.377 1030.244,1209.688c63.164,10.049 128.242,15.312 194.756,15.312l125.371,-6.221Zm-454.111,-1853.77l-153.125,153.125c-29.668,29.668 -78.477,29.668 -108.145,0c-29.668,-29.668 -29.668,-78.477 0,-108.145l153.125,-153.125c29.668,-29.668 78.477,-29.668 108.145,0c29.668,29.668 29.668,78.477 0,108.145Z" style="fill-rule:nonzero;"/></g></svg>